<svg xmlns="http://www.w3.org/2000/svg" viewBox="0 0 39 39"><circle cx="19.5" cy="19.5" r="19.5" style="fill:#000"/><path d="M22.3,19.7a3.3,3.3,0,0,1-.4,1.4,2.3,2.3,0,0,1-1.2,1,2.6,2.6,0,0,1-1.5.1,2.1,2.1,0,0,1-1.3-.7,2.1,2.1,0,0,1-.7-1.3,2.6,2.6,0,0,1,.1-1.5,1.8,1.8,0,0,1,1-1.1,2.4,2.4,0,0,1,1.4-.5,2.3,2.3,0,0,1,1.8.8A2.5,2.5,0,0,1,22.3,19.7Zm5.5-3.6v7.2a4.4,4.4,0,0,1-4.5,4.5H16.1a4.8,4.8,0,0,1-3.2-1.3,4.8,4.8,0,0,1-1.3-3.2V16.1a4.8,4.8,0,0,1,1.3-3.2,4.8,4.8,0,0,1,3.2-1.3h7.2a4.8,4.8,0,0,1,3.2,1.3A4.8,4.8,0,0,1,27.8,16.1Zm-4.2,3.6a3.1,3.1,0,0,0-.7-2.1,3.5,3.5,0,0,0-1.7-1.5,3.4,3.4,0,0,0-2.2-.2A3.1,3.1,0,0,0,17,17a3.1,3.1,0,0,0-1.1,2,3.4,3.4,0,0,0,.2,2.2,3.5,3.5,0,0,0,1.5,1.7,3.1,3.1,0,0,0,2.1.7,4.3,4.3,0,0,0,2.8-1.1A4.3,4.3,0,0,0,23.6,19.7Zm1.3-4.2a.8.8,0,0,0-.2-.5.8.8,0,0,0-.4-.4h-.6l-.5.3a.8.8,0,0,0-.2.5.6.6,0,0,0,0,.6l.4.4.5.2a1,1,0,0,0,1-1Z" style="fill:#fff"/></svg>