<svg xmlns="http://www.w3.org/2000/svg" viewBox="0 0 90 91.8"><path d="M90,47a58.4,58.4,0,0,0-.8-9.3H45.9V55.4H70.7a20.9,20.9,0,0,1-9.2,13.9L76.3,80.8C85,72.7,90,60.9,90,47Z" transform="translate(0 0)" style="fill:#4280ef"/><path d="M45.9,91.8c12.4,0,22.8-4.1,30.4-11.1L61.5,69.3a27.7,27.7,0,0,1-15.6,4.4c-12,0-22.1-8.1-25.8-18.9L4.9,66.5A46,46,0,0,0,45.9,91.8Z" transform="translate(0 0)" style="fill:#34a353"/><path d="M20.1,54.7a27.9,27.9,0,0,1,0-17.6L4.9,25.3a46,46,0,0,0,0,41.2Z" transform="translate(0 0)" style="fill:#f6b704"/><path d="M45.9,18.2a25,25,0,0,1,17.6,6.9L76.6,11.9A44.2,44.2,0,0,0,45.9,0a46,46,0,0,0-41,25.3L20.1,37.1A27.4,27.4,0,0,1,45.9,18.2Z" transform="translate(0 0)" style="fill:#e54335"/></svg>