<svg xmlns="http://www.w3.org/2000/svg" viewBox="0 0 717.1 434.6"><path d="M342.2,348c1.2,7,2.7,13.9,4.3,20.8a7.5,7.5,0,0,1,2-1l.6-.6a7.7,7.7,0,0,1,5.3-4.6c-.3-1-.6-1.9-.8-2.9-3.6-17.8-7.1-35.6-6.9-53.8.1-6.2.4-12.4.8-18.6a22.9,22.9,0,0,1-15.5,3.9,15.5,15.5,0,0,1-3.1-.6l-1.8,12.2c-.1-4.2,0-8.4.1-12.6a26.1,26.1,0,0,1-6.9-3.9,255.1,255.1,0,0,0-.3,60.5,268.1,268.1,0,0,0,4.7,26.8,32,32,0,0,1,6,6.2,8.4,8.4,0,0,1,2.8-5.1c-6.1-20.6-6.8-41.9-6.3-63,2.2,20.9,4.5,41.8,6.7,62.7a5.1,5.1,0,0,1,1.6-.9,11.5,11.5,0,0,1,3.1-1.1,7.9,7.9,0,0,1,4.2-1.2c-3.3-12-6.4-23.9-6.6-36.4-.1-10.2-.1-20.4-.2-30.6h.9C338.6,318.9,339.7,333.6,342.2,348Z" transform="translate(0 0)"/><path d="M384.3,114.6l-4.4,7.1c-6.6,10.1-14.5,19.6-19.4,30.4-13,28.5-24.4,57.7-31.8,88.5-.5,1.9-.9,3.9-1.4,5.9a24.7,24.7,0,0,1,6-1.3c1.7-7.6,3.6-15.3,5.8-22.9-1.2,7.6-2.3,15.3-3.4,22.9h1.6a26.6,26.6,0,0,1,6.3,1.7,60.3,60.3,0,0,1,1.2-12c5.3-22,11.5-43.7,17.7-65.3L346,248.1a19.7,19.7,0,0,1,5.3,4.2c1.1-7.9,2.4-15.9,3.6-23.9,5.1-31.8,13.8-62.3,28.9-90.8,5.2-9.9,10.7-19.6,16.3-29.6l-16,6.5Z" transform="translate(0 0)"/><path d="M550,89.6c-4.2-7.5-8-15.5-15.9-19.8s-19.2-9.7-28.7-14.7-21.4-7-32.5-3.5c-7.9,2.5-17.8.2-23,10.5-1.6,3.3-8.2,4.2-12.5,6.1l-1.1-1.6,22.5-17.4-1-1.3-6.9,3c8.2-12.4,21.8-14.9,31.5-23.3l-10.1,2.7a8,8,0,0,1-.8-1.6L509.7,2.3c-1.5-1-1.9-1.5-2.4-1.6L502.1.3C483.3-1.6,466.5,5.2,450.8,14s-32.9,21.1-43.9,38c-2.1,3-7,3.3-9,1-3.5-3.9-6.7-8.3-10.8-11.3a112.3,112.3,0,0,0-18.6-11c-4.7-2.2-9.9-3.1-14.9-4.7-11.1-3.7-22.5-6.3-34.1-4.3-16.9,2.9-33.7,6.7-50.6,10.3-1.3.3-2.3,1.8-3.5,2.8l.5,1.2,49.9,1.6c-5.2,4.5-13.1,1-18.3,8.5l34.4-1.3v1.5c-2.2.3-4.4.3-6.5.8s-2,1.5-3,2.2c1,.6,2.1,1.7,3.1,1.8,4.5.2,8.9.2,13.8.2-1.1,2.2-1.9,3.6-2.7,5.3,7.4,3.5,16.3-1.3,23.6,5.4l-6.8,1.5c7,3.1,15.7,2.7,18.8,13-3.3-.5-5.8-1.1-8.2-1.4-9-1.1-18.1-3.5-26.9-2.9a174,174,0,0,0-36.4,6.6c-21.1,6.3-41.2,14.8-58.8,28.8-9,7.1-15.8,15.5-22.1,24.6-1.3,1.8-1.2,4.6-1.7,6.9l1.5.8c4.1-2.6,8.1-5.4,12.3-7.8a22.3,22.3,0,0,1,6.6-2.2c3-.5,6.5.4,9-.8,6.9-3.3,13.4-7.3,20.1-11.1l12.5-6.9c.5.7.9,1.4,1.4,2l-6.8,4.4c-3,2-6.2,3.8-8.9,6.3s-2.7,4.2-4,6.4c2.5-.8,5.5-1.1,7.6-2.5,8.5-6.1,16.6-12.7,25.2-18.6,3-2,7.1-2.4,10.7-3.6a14.2,14.2,0,0,1,.8,1.8c-3.6,5-10.6,7.4-12.6,13.7l1,1.1,23.6-15.8a6.4,6.4,0,0,0,1,1.3l-8.9,10.9,1,.8,21.1-9.8c-.5,1.2-1,2.4-1.4,3.7a19.4,19.4,0,0,0,.2,3.4c1.1-.1,2.5.2,3.3-.3,4.4-2.7,8.6-5.7,12.8-8.6.7-.4,1.5-1.2,2.2-1.2l10.8.6L359,111c9.5-6.3,16,3.3,25.1,3.7l16-6.6.3-.5c.7.8,1.5,1.4,2.1,2.2,2.8,3.9,4.9,8.6,8.5,11.5s3.6,6.1,2.7,10.1-.8,6.7-1.2,10l1.6.5,4.6-8.7a37.1,37.1,0,0,1-2.1,11.4c-2.3,6.9-2.3,7.2,1.5,10.4l2.4-6.6,1.5.2c-.3,2.4-.5,4.7-.8,7.1-.8,7.3-1.7,14.7-2.4,22-.1.7.9,1.5,1.1,2.3s1.3,3.4.9,4.8a71.9,71.9,0,0,1-3.9,9c-1.1,2.2-3.7,4.2.2,6.4.5.4.4,2.6,0,3.8-2,6.9-4.2,13.7-6.2,20.5a16.5,16.5,0,0,0-.4,3.1l1.4,1.1c1-1.7,2-3.3,3.3-5.2,1.1,2.2,1.6,3.1,2.3,4.6l3.2-3.3c9.4-11.8,15.2-25.5,18.7-39.9,2.5-10.3,4.7-21.2,3.8-31.5-1.1-13.6-5.4-26.9-8.3-40.4-.5-2.3-.8-4.6-1.5-8.3,10.8,5.3,19.5,11,25.5,20,1.4,2.2,2.1,4.2,5.3,3.7.8-.1,2,1.1,2.6,1.9s2.5,4.3,4.1,6.2c9.7,11.3,20.1,22.1,20.8,38.3a14.3,14.3,0,0,0,1.3,2.8l5.8-3.2c2,2.3,3.4,4.6,5.3,6.2s6.3,5.2,7.5,4.5a17.8,17.8,0,0,0,6.7-8.6c2.4-7,1.5-14.2-1.5-20.9s-5.6-12.9-9.2-18.8-8.5-11.8-12.7-17.7-5.9-10.2-12.3-11.9c-1.1-.4-1.8-2.3-2.7-3.5s-1.4-2.4-2.4-3.1c-11.4-8.3-23.8-12.2-37.9-9.3-3.4.6-6.9.4-10.3.6,6.9-5.4,25.4-7,32.8-4.2s13.5,4.7,20.3,7l1-1.8-8.7-6.7c8.5-3.6,15.3,1.2,22.3,3.3,4,1.3,7.3,4.9,11.2,7,1,.6,3.3.1,4.3-.8s.1-2.9-.6-3.9-3.2-3.3-5.7-5.8c11.9,1.4,17.9,10.2,26.3,15.7,0-2.2-.1-3.6-.2-5.9,2,1.3,3.2,2.7,4.5,2.8,3.7.4,8,1.5,11.3.2S551.9,93,550,89.6ZM364.4,45.8a27.3,27.3,0,0,1-4.8-1c-4.8-2.1-9.3-4.7-14.1-6.5-9.6-3.4-19.3-6.5-28.9-10.2,11.5-1.6,22,3,31.6,5.2l16.4,11.1A6.8,6.8,0,0,0,364.4,45.8Zm116.5,64,14,16.5-1,.9-14.1-16.4ZM453.1,39.9a7.6,7.6,0,0,1-1.1-1.4l9.6-9.3,2.1,2.6Zm-32.7,88.9c0-2.8,0-5.5.1-9.3C426.5,123.4,422.9,126.1,420.4,128.8Zm7-73.9c1.8-11,30.9-35.1,42.6-37C452.9,27.7,440.1,40.8,427.4,54.9Zm34.1,9.2c6.1-4.5,24.6-6,32.9-2.2Z" transform="translate(0 0)" style="fill:#006837"/><path d="M320.6,253.5l3.2-.8a9.2,9.2,0,0,1,3.7-.1c1.2-.6,1.9-.5,2.2.2a10.5,10.5,0,0,0,3.9.8,33.9,33.9,0,0,1,4.5.2c6.8-.3,11.6,2.3,14.3,7.9-1.1,3.3-2.2,6.5-3.1,9.8a66.8,66.8,0,0,1-3.7,9.7,68,68,0,0,0-5.7,5,1.8,1.8,0,0,0-1.2.5l-6.1-.8a8.7,8.7,0,0,1-5.8-3.5c-2.6-3.3-4.2-5.9-4.7-7.9-2.5-4-3.4-8.1-2.5-12.1a9.8,9.8,0,0,0,.5-4.5A8.3,8.3,0,0,1,320.6,253.5Z" transform="translate(0 0)" style="fill:#006837"/><path d="M150.6,158.3l-3,9.9c-2.9,10-5.8,20-8.6,30a30.6,30.6,0,0,0-1,5.1c-.6,5.7,2.3,8.7,7.9,7.1,9.3-2.5,17.6-6.3,19.4-17.8,1.2-8.1,3.9-15.9,6-23.9,2.8-10.6,6.1-12.6,17.4-10.5-3.5,13.1-7,26.2-10.4,39.3a55.5,55.5,0,0,0-1.7,10.7c-.2,4,1.5,4.9,4.8,2.6a74.1,74.1,0,0,0,10.3-8.2c5.5-5.1,10.8-10.3,15.8-15.7,1.3-1.4,1.7-4.1,1.7-6.1.2-4.9-1-9.9-.2-14.5,2-10.5,12.2-17.2,22.7-15.7,4.4.6,5.8,4.3,2.2,7.8s-6.7,4.2-11,6.7c.8,1.7,1.6,4.4,3.2,6.5a119,119,0,0,0,9.8,11.5c6.4,7,7,10,2.9,18.6a4.3,4.3,0,0,0-.6,2.7c5.4-4.7,11.9-7.9,15-15.5,8.8-21.6,30.8-35.4,52.1-33.7,3.4.2,6.8,1.3,10.6,2-1.9,8.9-3.9,17.3-5.5,25.7-1.3,6.4-2.3,12.8-3.1,19.2-.2,1.5.4,4.1,1.4,4.5a5.8,5.8,0,0,0,5.1-.8c5.5-4.4,10.8-9.2,16.1-13.9a45.8,45.8,0,0,0,3.4-4.3c1.4,5.4.8,8.8-2.7,11.7-8.2,6.6-16.2,13.5-24.3,20.2a40.8,40.8,0,0,1-4.4,2.8c-7.3,3.8-11.1,1.6-11.3-6.6-.1-2.6-.1-5.2-.1-8.2-4.8,4.2-8.8,8.5-13.7,11.5a36.3,36.3,0,0,1-13.9,5c-5.9.9-9-1.7-11.1-7.4a25.5,25.5,0,0,1-1.5-5.4c-.4-1.9-.5-3.7-.8-6-5.5,3.9-10.7,7.8-15.9,11.4-8.8,6.1-18.2,9.3-29,6.8-6.5-1.6-12.1-3.9-13.7-11.9-3.4,2.6-6.2,5-9.3,7a52.7,52.7,0,0,1-10,5.2c-5.9,2-9.2-.2-10-6.3-.4-3.1-.1-6.3-.1-10.5a52.7,52.7,0,0,1-5.1,4.3c-6.7,4.1-13,9.1-20.1,11.9-9.6,3.9-14.8-.5-15-10.8,0-3.2.3-6.3.5-10.5-2.6,2.5-4.7,4.7-7,6.6-6.7,5.4-13.2,11.2-20.5,15.9s-13.2,2.3-14.9-6.2a117.3,117.3,0,0,1-2.1-25.8c1-21.1,3.7-42.1,9.2-62.6a54,54,0,0,0,1.6-7.8c.4-4.7-1.2-6-5.6-4.3a84.7,84.7,0,0,0-26.9,17.2C40.2,149.3,32.9,167.9,28.7,188c-2.1,10.2-4.6,20.3-6.7,30.5-.6,2.9-1.9,3.8-4.8,3.7H4.8c1.6-18.4,7.2-35.4,11.6-52.5L30,116.8c-2.1,1.1-3.1,1.6-4,2.2-7,4.9-13.9,9.9-21,14.6-1.2.9-3.3.4-5,.6.5-1.9.2-4.7,1.4-5.4Q23.2,115,45.2,101.7c1.3-.8,2.9-.9,5.5-1.6,0,13-5.8,24.5-5.7,37.1,1.7-1.9,3.4-3.9,5.2-5.8,10.1-10.8,20.7-20.9,34.5-26.8a65.6,65.6,0,0,1,13.1-3.8c8.2-1.5,11.5,2,9.9,10.4-2.1,10.8-4.7,21.6-6.2,32.5-2.6,17.5-4.5,35-6.5,52.5a26.7,26.7,0,0,0,1.1,9.3c1.2,5.3,4.8,6.6,9.1,3.2s6.2-6.4,9.7-9a40.1,40.1,0,0,0,15.7-25.4,53,53,0,0,1,2.3-6.7C136.3,157.4,138.9,156,150.6,158.3Zm150.9,1.9c-3.8.8-6.6.9-8.9,1.9-14.5,6.4-23,17.7-25.8,33.2a30.2,30.2,0,0,0,.3,10.4c.7,4,3.7,6.9,7.7,6.1,7.5-1.4,14.7-5.6,17-12.3,4.3-12.2,6.4-25.3,9.7-39.3Zm-87,30-2.8-.9-6.8,9c-1.1,1.4-2.5,2.5-3.5,3.9-3.7,4.8-3.4,10,2,12.8a29.4,29.4,0,0,0,13.3,3.3c8.1.2,11.7-5.4,8.1-12.5s-6.8-10.4-10.3-15.6Z" transform="translate(0 0)"/><path d="M716.3,340.9c-9.3,6.3-15.4,15.9-26,20.1a25,25,0,0,1,.9-8.6c3.4-11,7-22,10.2-33.1a36.6,36.6,0,0,0,1.6-11.4c-.2-6.4-3.3-9.4-9.6-8.7a35.5,35.5,0,0,0-13.1,3.9c-11.6,6.1-19.5,16.1-27,26.5l-3,4.1-1-.7,8.8-30.2c-14.4-2-18.3.2-22.4,12.8-2.1,6.6-4.9,13.1-5.7,19.9-1.6,12.7-10.4,19.2-19.7,25.6-1.6,1.1-4.6,1.7-6.3.9s-1.9-3.7-1.7-5.5c.9-7.3,2-14.5,3.5-21.7,2.1-10.9,4.6-21.7,7.1-33.1-4.7-.9-8.8-2.2-12.9-2.5-27-2.2-55.8,16.8-64.9,43.9-3.5,10.3-12.1,14.8-19.6,21.2,4.8-20.3,9.5-40.7,14.4-61.6-12.9-2.4-25.4-5.7-38.1-2.8-19.6,4.5-30.7,18.6-39.3,35.6-5.6,11.2-15.7,18.2-25.3,25.5-.4.2-1.1-.1-2.9-.2.8-3.3,1.3-6.4,2.2-9.4,3.7-12.2,8.1-24.1,11.1-36.5s-3.8-19.5-16.2-14.4a60.6,60.6,0,0,0-18.2,11.8c-6.7,6.2-12.2,13.7-19.1,21.8,3.1-11.1,6-21.1,8.9-31.1-13.7-2.5-18.3.1-22.3,12.4-2,6.4-4.7,12.8-5.6,19.4-2,15.4-13.8,22.9-23.9,31.9-3.3,3-5.8,1.2-6.4-2.7a11.3,11.3,0,0,1-.1-4.1c-6.3-.3-8.9-6-7.9-10.8a8.2,8.2,0,0,1-4-4.6,8.5,8.5,0,0,1-2.2-5c-4,7-10,12.7-16.7,17.9l-2.7,2.2c-1.3.7-2.6,1.1-5.7,2.4,1-4.3,1.4-7.1,2.2-9.9,3.8-12.4,7.8-24.7,11.3-37.1,1.3-4.8,2.3-11.2-2.5-13.8s-9.8-1.9-14.2-.6c-9.5,2.7-16.7,9.5-23,16.9-4.5,5.2-8.6,10.7-12.9,16.1l-.7-.3,8.7-30.2c-12.7-2.9-18.3,0-22,11.5-2.7,8.7-5.1,17.4-7.6,26.1-.6,2.1-.7,4.6-2,6-9,9.7-18,19.7-30.4,25.4a15,15,0,0,1-17.5-3.9c-5.5-6.2-7.2-25.9.1-34.1a4.2,4.2,0,0,1,1.4.9c12.9,16.8,38.7,5.8,44.2-11.9,3.7-12.3-1.3-21.4-13.2-23.5s-21.2-.6-30.6,5.6c-12.9,8.4-20.4,20.6-24.3,35.3-.7,2.6-1.9,5.7-3.9,7.3-12.6,10.2-26.8,17.4-42.9,20.4-25.8,5-45.9-8-52-33.7a73.5,73.5,0,0,1,.5-35.5c6.4-25.2,19.2-45.5,45-54.6,17.8-6.4,24.6-2.6,30,15.3,3.1,10.5,2.4,12.7-7.2,18.2-6.7,3.8-13.9,6.8-20.4,10.9-2.3,1.4-3.2,4.9-4.8,7.5,2.9-.2,6.3.5,8.7-.7,13.5-6.9,26.8-14.5,40.3-21.5,5.6-2.9,7.1-7,6.2-12.8-2.3-13.9-13.2-26.1-27.2-28.1a78.9,78.9,0,0,0-25.2.8c-25.3,5-43.2,20.4-55.2,42.8S37.1,325,45.5,351s28,37.5,54.2,35.1c20.9-1.9,38-11.9,54.2-24l6.4-4.8c.4,2.4.7,3.9,1,5.4,2.2,13.1,9.8,19.6,23.1,20.8,11.4,1,21.3-2.4,30-9.4,5-3.9,9.8-8,15.4-12.6-.9,7-1.6,12.9-2.4,19.2h17.3c5.3-13,9.7-26.2,15.9-38.5,4.3-8.4,10.7-15.8,16.8-23.2,1.4-1.7,5.8-2.6,7.6-1.6s2.8,5,2.4,7.4c-.9,4.8-3,9.5-4.6,14.2-4.1,12-9.6,23.7-9.3,36.8.1,7,4.4,9.8,10.7,6.5a74.4,74.4,0,0,0,11.5-7.7c7.1-5.7,13.9-11.8,20.3-17.2,0,6.1-.7,12.5.2,18.6s5.5,9.6,11.8,6.7,12.6-7.3,18.5-11.5c4-2.8,7.4-6.5,12-10.7-.9,7.6-1.7,13.8-2.6,20.3h17.4c5.2-13,9.8-25.9,15.6-38.2,3.6-7.5,8.9-14.4,14-21.1,2.5-3.2,6.4-6.9,10.9-4.3s2.5,7.6,1.3,11.6-2.9,7.1-3.9,10.8c-3.2,11.7-6.9,23.3-8.9,35.1-1.3,8.3,4.4,11.5,11.5,7a179,179,0,0,0,18.6-13.8c4.6-3.6,8.8-7.7,13-11.5.9,6.2,1.1,12,2.7,17.5,2,7.3,6.1,9.8,13.7,9.6,10.9-.4,19.3-6.1,27.4-12.5l7-5.4c.2,10.5-2.7,17.9-11.1,23.4s-18.8,14.2-28,21.6c-4,3.2-7,7.4-5.5,13.1s5.7,8.4,11.1,9.9c7.7,2.1,14.8.6,21.4-3.9,15.1-10.5,23.3-25.7,26.9-43.1,2.6-12.4,13.2-16.9,20.3-25.6,1.1,4.9,1.7,8.8,2.9,12.4,2.6,7.9,6.5,11.1,14.6,9.8a43.9,43.9,0,0,0,16.5-6.1c5.9-3.7,10.7-9,16.7-14.2,0,4.7-.3,8.7.1,12.7.7,7.3,5.1,9.8,11.7,6.5a103.1,103.1,0,0,0,12.6-8c5.6-4,10.9-8.4,17.1-13.3-.9,7.2-1.7,13.4-2.5,19.9h17.3c5.4-13.3,9.8-26.3,15.9-38.5,4-8.1,10-15.4,15.9-22.5,1.6-2,6-1.7,9.2-2.4.5,3,2,6.3,1.3,9-1.7,6.7-4.9,13-6.7,19.7a264,264,0,0,0-6.6,30.3c-.9,6.2,4,8.9,9.9,6.3a27.7,27.7,0,0,0,6-3.5c9.9-8.6,19.7-17.3,29.6-25.8C716.6,350.1,718.1,346.4,716.3,340.9ZM188,324.1c1.1-7.1,12.4-16.5,20-16.9s10.4,2.7,10.3,11-4.8,14.7-10.4,16.6-14.5-1.2-18.8-7.1A5.2,5.2,0,0,1,188,324.1ZM481.6,425.7a9.6,9.6,0,0,1-2.2,1.8c-3.7,2.6-8.5,4.1-11.6.8s-2.1-6.9-1.8-10.4,2.2-5,4.1-6.7c6.7-6,13.8-11.7,20.7-17.6l1.5.8C490.8,405.4,489,416.4,481.6,425.7Zm27.5-116.2c-3.4,14-6.5,28.1-10,42.1-1.6,6.2-15.1,17.2-21.4,16.7a13,13,0,0,1-8.3-5.6c-2-3.9-2.1-8.8-2.7-11.9,1.3-17.7,6.6-32,19.8-42.3,5.8-4.4,12.3-6,19.6-3.9,3.1.9,3.6,2.2,3,4.9Zm74.3,44c-2.9,8.1-11.7,13.2-20.8,14.9-5.2,1-9.3-3.4-9.8-9.9-1.8-20.1,7.5-34.8,23-46.3,5.3-3.9,11.2-6.7,19.2-6-3.8,16.3-6.3,32.3-11.6,47.3Z" transform="translate(0 0)"/></svg>