<svg xmlns="http://www.w3.org/2000/svg" viewBox="0 0 713.4 713.4"><circle cx="356.7" cy="356.7" r="356.7" style="fill:#34e0a1"/><path d="M577.1,287.2l43-46.9H524.7a298.6,298.6,0,0,0-335.6,0H93.4l43.1,46.9a131.5,131.5,0,0,0-12,185.7c48,54.6,131.2,60,185.7,12,1.5-1.3,3-2.6,4.4-4l42.1,45.9L398.9,481A131.6,131.6,0,0,0,577.1,287.2ZM225.2,473.5a89.1,89.1,0,1,1,89-89.2h0A89.1,89.1,0,0,1,225.2,473.5Zm131.6-91.7c0-58.6-42.6-108.9-98.9-130.4a257.6,257.6,0,0,1,197.7,0C399.4,273,356.8,323.2,356.8,381.8Zm131.6,91.7a89.1,89.1,0,1,1,89-89.2h0A89.1,89.1,0,0,1,488.4,473.5Zm0-135.8A46.7,46.7,0,1,0,535,384.5h0A46.7,46.7,0,0,0,488.4,337.7ZM271.8,384.4a46.7,46.7,0,1,1-46.7-46.7h.1a46.6,46.6,0,0,1,46.6,46.6Z"/></svg>