<svg xmlns="http://www.w3.org/2000/svg" viewBox="0 0 285 61"><path d="M138.2.5c0,.3.4.5.9.5a1.7,1.7,0,0,0,1.2-.5c.2-.3-.2-.5-.9-.5S138.2.2,138.2.5Zm28.2.9a3.8,3.8,0,0,0,1.5,0c.5-.2.1-.3-.7-.3S166,1.2,166.4,1.4Zm5.9,0a5.4,5.4,0,0,0,1.8,0c.4-.2,0-.3-1.1-.3s-1.3.2-.7.3Zm3.4,0a1.7,1.7,0,0,0,1.2-.1c.2-.1-.2-.3-.8-.2s-.9.1-.4.3Zm5.7.2c0,.3.2.4.6.2l.6-.5c0-.2-.3-.3-.6-.3a.6.6,0,0,0-.6.6Zm-71,1c-1.4.4-1.4.4.5.4s2-.1,2-.4-.3-.6-2.5,0Zm28.2.2a1.2,1.2,0,0,1-1.2.7c-.4-.2-5.3,0-10.9.4l-18.2,1c-12.4.4-25.9,1.2-33,2L61.1,8.2,50.6,9l-5.9.5-6.5.7L28.1,11.5c-10.7,1.4-13.2,1.9-13.6,2.9a3.2,3.2,0,0,1-2.2,1.3c-1,.2-1.8.5-1.8.8s-.6.6,4.9-.3,14.6-1.4,18.2-.9,2.7.5-2.7.6c-7.7,0-18.8,2.3-22,4.3s-1.6,2.6.9,2.2c.9-.1,1.3-.1.8.1s-.7.4-.7.6a12.7,12.7,0,0,1-3.1,2c-3,1.5-4,2.7-2.3,2.6L9.1,27c2.1-.4,3.9-.5,3.9-.2s1.1.4,2.4.3c4.6-.1,3.1.5-2.6,1.1a60,60,0,0,0-8.5,1.2c-2.3.6-2.8.9-3,2.1v1.3l2.5-.7c3.7-1.1,5.1-.9,2,.3-1.4.5-2.6,1.3-2.6,1.6s-.7,1.1-1.6,1.4A2.4,2.4,0,0,0,0,37.1c0,.5.3.9,1.8.6s1.9-.1,1.9.5-.2.7-.6.8H3c-.4,0-.5.4-.2.9a7.4,7.4,0,0,1-.6,5c-1,2.1-.2,1.4.5,2.4a5.1,5.1,0,0,1,1,2.4,3.9,3.9,0,0,0,1.3,2c1.5,1.1,6.2,1.2,13.7.3,5-.6,5.5,0,.6.8-2.1.3-2.5.4-1.1.3l10.2-.7,10.5-.9,6.4-.3c2.2,0,3.9-.2,4.2-.5s.4-.5.5,0,.9.7,2.4.7,2.5-.3,2.5-.7,2-.8,8.8-1.1L79.3,49c6.8-.3,6.9-.3,7.2.8s-.7,2.4-5.7,2.5a97.7,97.7,0,0,0-10.8.6c-.6.1-11.4.4-19.9.4-3.7,0-5,.2-4.9.7s-2.1,1.2-2.6.4-.8-.4-1.8.1-1.4.6-1.9-.1-.6-.5-.6-.1-1.4.7-3,.9l-4.1.6c-.9.2-1.1.1-.8-.8s.1-1.1-2.9-1-3.1.1-.5.3,2.6.4,2.6,1-.3.6-.6.4a1.4,1.4,0,0,0-1.4.2,28.8,28.8,0,0,1-5.9.7,25.7,25.7,0,0,0-5.5.6c-.9.7.6.9,3.5.4a71.1,71.1,0,0,1,9.2-.6c3.3,0,7.3-.3,9-.5,8-1.2,26.8-1.9,40.4-1.4,1.7,0,2.8-.2,3-.6s.5-.5.7-.3a20.7,20.7,0,0,0,4.3-.2c3-.3,4.1-.3,5.1.4s1.4.5,1.6.3,23-.5,23.6.2.5.4.8-.1,1.3-.8,5-.6a56.2,56.2,0,0,0,8.2-.3c2-.2,3.7-.2,3.8.1s4.4.6,4.4,0,21.5-.2,30.5.7,13.3,1,13.3.3,1-.6,2.1-.6,2.1.2,1.8.8-1.5.8-4.7.9-3.9.1-1.4.3,3.3.3,3.6.6-5.7,0-7.1-.6a2.3,2.3,0,0,0-1.8-.1,23.5,23.5,0,0,1-5.3.2c-3.3,0-4.8.1-5.2.6s-.6.5-1.1,0-1.2-.7-3.5-.3a45.3,45.3,0,0,1-5.2.3c-15.7-.1-21.1-.1-21.6.2s-.6,0-.6-.4-.2-.5-.6.1-.6.6-.6.1-2.3-.8-2.7,0-.4.5-.9,0-4.5-.6-18.4-.6c-9.8.1-18.3-.1-18.8-.3a1.7,1.7,0,0,0-1.4.3c-.6.7-3.5.6-3.5-.1s-.1-.5-.4-.1-4.5.8-4.5,0-.2-.4-.5.1S70.1,58,66.5,57.6a6.9,6.9,0,0,0-3.2.4,4,4,0,0,1-2.4.5c-3.3-.2-4.2.2-1.1.6s10.5.4,19.2.5,15.3.2,14.8.3l-7.7.7c-5.3.3-3,.4,10.4.2l19.4-.2c1.2,0,1.8-.2,1.6-.5a.8.8,0,0,0-.9-.3.7.7,0,0,1-.9-.2c-.3-.4,1.7-.5,5.6-.5s5.8.1,5.2.5,9.6.1,11.1-.6a2.5,2.5,0,0,1,1.9-.2c1.1.6,11.6.6,11.9,0s.3-.2.3.1.9.7,1.9.7,1.7-.2,1.5-.8,0-.8.9-.8,1.3.4,1.3.8,1.1.8,6.2.8,6.1-.2,6.1-.5.5-.6,1-.6.8.3.6.6a.3.3,0,0,0,0,.4h.2a1.3,1.3,0,0,0,.9-.7c.2-.4.3-.2.4.3s.6.9,2.4.9,2.5-.2,2.7-.5,5.1-.9,4.9-.2.9.9,1.4.2a2.1,2.1,0,0,1,1.5-.5c.6,0,.7.1.2.3s-.5.5.3,1.1,1.1.6,1.2.3l1.1-1.5c.7-.8.8-.8,1.7-.1s1.2.6,1.5.3a50.5,50.5,0,0,1,6.8-.7l8.3-.3c1.1-.1,6.5,0,12,.3,9,.3,9.7.3,9-.5s-1.3-.9,5.8-.9c4.3.1,5.2-.1,4-.5s-6.7-.8-18.2-.9a69.7,69.7,0,0,1-7.9-.4,15.7,15.7,0,0,0-4.3-.4c-2.6-.2-3.9-.4-4.3-1s-2.9-1.1-2.9-.2-.7.4-2,.2c-9.1-1.5-35.7-3-33.8-1.8s.4.5-1.4.3-4.8-1.3-4.8-2.2-5-1.2-5.6-.6-3.6.1-4.2-.4.6-.2,1.5-.3,1.4-.1.8-.3-1-.4-.8-.7-.8-.4-2.1-.4-2.5.2-2.5.7.5.8,1.3.8c3.3,0,.3.5-4.8.8s-5.6.2-6-.8-.7-1.1-6.7-.9-6.4.2-6.5,1.3-2.6,1.7-2.6.4-.8-.8-1.8-1-1.8-.5-1.6-2,.3-1.7,2.4-1.8,3.1.8.6,1c-.9.1-1.8.4-1.9.8s.7.5,3,.4l17.2-.5c12.3-.2,13.8-.4,13.6-1.1s.2-.7.6-.6a1.7,1.7,0,0,1,1,1.3c.1.8-.2,1.2-1.2,1.3s.2.3,2.2.3,3.5-.2,3.5-.4.6-.5,1.4-.5a5.4,5.4,0,0,0,2.5-.3c.6-.2,1-.2,1,.2s1.3.5,3.6.5,3.4-.1,1.1-.5l-2.5-.3H167c1.9,0,2.6.1,2.6.7s.8,1.3,4.1.8,3-.4.6-.5-2.2-.2-2-.3,12.4-.3,16.2.2,2.8.4.8.5-2.2.2-2.2,1.4.2,1.2,3.1,1.2,2.9-.1,2.4-.4.5-.6,2.9-.8a14.2,14.2,0,0,0,4.1-.8,2.9,2.9,0,0,1,2-.5c1.5,0,1.5.1.4.5a3,3,0,0,1-1.6.2c-.2-.1-.2.4-.1,1.1s.3,1.3,6.3,1l18.6-.2c10.5-.1,12.4-.2,11.2-.7s-1.2-1.4,1.4-1.4,2.1.2,2.4,1.1.5,1,.7.8a1.2,1.2,0,0,0,0-1.2,2.3,2.3,0,0,1-.4-1.4c0-.2-1-.3-2.3-.3-3.5,0-6.3-.6-6.1-1.3a1.2,1.2,0,0,1,1.3-.4c.6.1,1-.1,1-.4s-1.9-.5-4.9-.5-5-.2-5-.6.7-.5,1.4-.4c3.4.2,5.4-.1,5.4-.7s2.8-1.9,7.3-2.1,5.4.5,1.5.9l-2.3.2h2.3c1.5.1,2.3.4,2.3.8s1,.7,3.8.5,6.6-1.1,3.9-1.2c-.7-.1-.5-.2.6-.4,2.6-.5,2.7-2.1.2-2.2s-1.9-.1-.3-.3,2.1-1.2-.3-1.2a50.9,50.9,0,0,0-7.8.3c-.2.2,0,.5.5.7s.6.5-.1.7a2.8,2.8,0,0,1-1.8-.2c-.7-.4-.7-.5,0-.9s.6-.6-.4-1.1a3.2,3.2,0,0,0-1.9-.3,2,2,0,0,1-1.3-.2c-.7-.4-.4-.5,1-.5a5.9,5.9,0,0,0,2.3-.4c.6-.5,3.5-.5,3.5,0s1.5.4,3.4.4,3.3.2,3.1.5.1.5.8.5,1.3-.9.1-2.3a3.8,3.8,0,0,1-.8-1.7c-.2-.8-.1-1.1.7-1.2s.3-.2-.7-.4a64.4,64.4,0,0,0-9.1-.3c-4.1.1-7.4,0-7.4-.3a.6.6,0,0,0-.6-.5c-.3,0-.6.2-.5.4s-.2,1.7-.8,1.7-.5-.2-.3-.5-1.8-1.6-5-1.7c-1.6-.1-2.9-.4-2.8-.6a2.2,2.2,0,0,1,1.7-.4,2.3,2.3,0,0,0,1.8-.4c.2-.3-.1-.5-.9-.5s-1.2-.3-1.2-.6-.3-.4-.6-.2-3.2-.2-2.8-.8.9-.4,1.4-.3l5.3.6c4.1.3,5.3,1,1.6.9s-1.9,1.1,1.3,1.6,2.7.3,2.9-.1.6-.5,1.4-.1,9.9-.2,11.7-1a12.4,12.4,0,0,1,3.3-.4c2.6.1,3.2-.2,2.3-1.5s-.7-.7-.7-.3-2.4.9-2.4.2-1.5-.3-3.3-.2-3.4.1-3.7-.5.3-.8,2.4-.8a27,27,0,0,0,4.1-.6,16.4,16.4,0,0,1,3.8-.4,6.3,6.3,0,0,0,2.7-.4c.2-.1-1.4-.3-3.6-.3-5.2,0-4.5-.3,1.6-.7,2.7-.2,5-.4,5.1-.6s-5.2-.4-6.4-.2-8.3-.6-8-1.1a30.2,30.2,0,0,1,6.7-.4l8.1-.3c2.9-.4,11.2-.8,16.2-.8,2.5,0,4.5-.2,4.5-.4s-2.2-.7-4.8-.8c-10.7-.8-11.5-.9-12.3-1.8s-.9-.8-1.7.1-.9.8-1.7.2a5.1,5.1,0,0,0-2.4-1c-.8-.1,1.1-.3,4.4-.3,6-.1,18.3-1.3,18.9-1.8s-1-.4-2.6-.4c-4.2,0-6.5-.9-2.8-1,5.4-.1,5.6-.8.4-1.2s-7.2-.7-4.5-.8,1.2-1.3-2.8-2c-7-1.3-6.8-1.2-5.9-1.7s.4-.4-.7-.5h-1.6l1.6-.4c1.2-.3.7-.5-2.5-.8a19.4,19.4,0,0,0-4.8-.3,2.9,2.9,0,0,1-1.6-.4c-1.6-1.1-10-1.3-60.4-1.4-41.5,0-53.1-.2-53.5-.7s-.5-.4-.8.2Zm-38.4.3c-1.7.4-1.7.4.7.4a40.5,40.5,0,0,0,4.9-.4l2.5-.4h-3.1a28.1,28.1,0,0,0-5,.4Zm-67,15.2c-.6.5-10.4,1.8-15.3,2l-4.6.2,4.6-.8c7.3-1.2,16-2,15.3-1.4Zm250.6.7q0,.5.6.3c.3-.2.6-.5.6-.6s-.3-.2-.6-.2A.6.6,0,0,0,283.8,19Zm-59.4,1.9a8.1,8.1,0,0,1-2.2,0c-.6-.1-.1-.2,1.1-.2S225,20.8,224.4,20.9Zm-32.1.5a1.3,1.3,0,0,1-1.2,0c-.5-.2-.3-.3.4-.3s1,.1.8.3Zm48,.1c-.2.3-1.1.4-2,.3-2.6-.4-2.5-.7.1-.7s2.1.2,1.9.4Zm23.6,1.4a2,2,0,0,0,1.5,0c.4-.1.1-.2-.8-.2S263.4,22.8,263.9,22.9Zm3.1,0a1.3,1.3,0,0,0,1.2,0c.2-.2-.2-.3-.8-.3s-.9.2-.4.3Zm5.5,0a1.3,1.3,0,0,0,1.2,0c.2-.2-.1-.3-.8-.3s-.8.2-.4.3ZM238.9,24a4.3,4.3,0,0,1-1.6,0c-.4-.2,0-.3.8-.3S239.3,23.8,238.9,24Zm-48.7,3.3c0,.2-.2.4-.4.3a.4.4,0,0,1-.4-.4,1.2,1.2,0,0,0-1.4-.3c-1.6.4-1.8-.4-.3-1s1.5-.6,2.1.1S190.4,27.1,190.2,27.3ZM234,25.5a4.3,4.3,0,0,1-1.6,0c-.4-.1-.1-.3.8-.3S234.4,25.4,234,25.5Zm-49.9.9c.1.5,0,.8-.3.8s-.6-.3-.6-.8.1-.7.3-.7S183.9,26,184.1,26.4Zm16.2,0c.2.5.5.7.8.6a.7.7,0,0,1,.9.2c.3.4-1.1.5-4.2.4-4.8-.1-6.7-.9-2.2-.9,1.3,0,2.4-.2,2.4-.5S199.9,25.6,200.3,26.4Zm-18.9.3c0,.3-.5.4-1,.2s-.9-.4-.9-.5.4-.2.9-.2,1,.2,1,.5ZM21.4,27a1.7,1.7,0,0,1-1.2.1c-.4-.2-.3-.3.4-.4S21.6,26.8,21.4,27Zm235.1.7c-.3.9-.2,1,.8.8s1.2-.1,1.2.2a.6.6,0,0,0,.6.6h0c1,0,.7-1.1-.5-1.4a3.9,3.9,0,0,1-1.4-.8C257,26.8,256.6,27.1,256.5,27.7Zm-48.8-.2a1.7,1.7,0,0,1-1.2.1c-.4-.2-.3-.3.4-.3S207.9,27.4,207.7,27.5Zm11.6.2c.2.3-.2.5-.9.5s-1.2-.2-.9-.5a1.1,1.1,0,0,1,1.5-.3l.3.3Zm16.4,1.1a.8.8,0,0,1-.7.5.6.6,0,1,1-.5-1.1h.5A.7.7,0,0,1,235.7,28.8Zm8,0c0,.2-.8.5-1.8.5a4.2,4.2,0,0,1-2.2-.5c-.3-.3.5-.6,1.8-.6S243.7,28.5,243.7,28.8Zm-24.2,2.1a1.1,1.1,0,0,1-1.4.7,1.5,1.5,0,0,1-.6-.5c-.2-.6.1-.8,1-.8S219.6,30.6,219.5,30.9Zm39,1.5c0,.3.3.4.6.2s.6-.4.6-.5-.3-.3-.6-.3a.6.6,0,0,0-.6.6ZM240,33.6c0,.5-.2.8-.4.8a2.6,2.6,0,0,1-1.3-.8c-.8-.6-.7-.7.4-.7S240,33.2,240,33.6Zm13.8.3c-.2.3,0,.5.3.5s.7-.2.7-.5-.1-.5-.3-.5Zm-20.3.5a1.2,1.2,0,0,1-1,.5.5.5,0,0,1-.5-.5c0-.3.4-.5.9-.5S233.7,34.1,233.5,34.4Zm3.6-.1c.2.3-.3.4-1.2.2a4.2,4.2,0,0,1-1.5-.4C234.4,33.7,236.8,33.9,237.1,34.3Zm18.3,1.1c0,.3.4.4.9.2s.9-.4.9-.5-.4-.2-.9-.2-.9.2-.9.5Zm-5.6.5a.6.6,0,0,1-.6.6h0a.6.6,0,0,1-.5-1.1.5.5,0,0,1,.5,0A.6.6,0,0,1,249.8,35.9Zm-14.8.3.4.9c.2.5-.4.7-2.6.6s-4.4-1.1-1.3-1.4l2.8-.3c.4,0,.7,0,.7.2Zm-66.6,3.3c0,.3-.6.6-1.4.5s-1.2-.1-.4-.5S168.4,38.9,168.4,39.5Zm4.9,0c0,.3-.9.6-2.1.6s-2.1-.2-1.9-.4,4-.8,4-.2Zm-8.1.4a2.4,2.4,0,0,1-1.2,0c-.5-.2-.4-.3.4-.3S165.4,39.7,165.2,39.9Zm28.2.3c.9.7-.4,1.4-1.9,1.1a24.9,24.9,0,0,0-4.7-.4c-1.9-.1-3.3-.4-3.4-.7s1-.6,4.7-.5a23.2,23.2,0,0,1,5.3.5Zm52.7-.1c0,.2-.4.5-.9.5s-.9-.3-.9-.5.4-.6.9-.6.9.3.9.6Zm-49.3,1c0,.3-.4.5-.9.5s-1-.2-1-.5.5-.5,1-.5.9.2.9.5Zm4,0c.2.3-.1.5-.6.5s-.9-.2-.9-.5a.5.5,0,0,1,.5-.5A1.2,1.2,0,0,1,200.8,41.1Zm9.2.5a.7.7,0,0,1-.9.2.4.4,0,0,1-.3-.6.3.3,0,0,1,.1-.2.7.7,0,0,1,.9-.1.3.3,0,0,1,.3.5c0,.1,0,.1-.1.2Zm9.5-.2c2.2.5,1.5,1.2-1.1,1.1s-2.9-.4-2.1-1.1,1.3-.4,3.2,0Zm25.4.7c0,.6-.2,1-.6,1s-.4-.4-.2-1,.4-1,.6-1,.2.4.2,1ZM220.6,44c-.2,1-2,1.9-2.8,1.4s-.7-1.2.6-1.2,1.2-.3,1.2-.5a.6.6,0,0,1,.6-.6h0C220.5,43.1,220.7,43.5,220.6,44Zm-65.3,0a8.5,8.5,0,0,1-3.2.3,8.5,8.5,0,0,1-3.2-.3c-.3-.2,1.2-.3,3.2-.3S155.5,43.8,155.3,44Zm84.1.2c0,.3.2.4.6.2s.6-.4.6-.5-.3-.2-.6-.2A.6.6,0,0,0,239.4,44.2Zm-99.7,1c0,.5-.9.7-3.5.8s-3.7-.1-3.9-.4-.7-.3-1.1.1a1.7,1.7,0,0,1-1.7,0c-1.2-.6,0-.9,4.7-1.2S139.7,44.3,139.7,45.2Zm75.5-.1c.3.9-1,.7-1.4-.2s-.1-.7.4-.6A1.6,1.6,0,0,1,215.2,45.1Zm8.4-.4c.2.3,0,.5-.6.5s-.9-.2-.9-.5.2-.5.6-.5a1.1,1.1,0,0,1,.9.5Zm19.1,1c.3.3.5.5.7.5s.3-.2.3-.5-.3-.5-.7-.5S242.5,45.4,242.7,45.7Zm5.3.3c0,.4.1.7.2.7s.4-.3.6-.7.1-.8-.2-.8S248,45.5,248,46Zm-137.3.2a1.6,1.6,0,0,1-1.1.5c-.4,0-.4-.2.2-.5S111.2,45.6,110.7,46.2Zm4.3,0a1.7,1.7,0,0,1-1.2.5c-.5,0-.9-.2-.9-.5s.6-.5,1.3-.5S115.3,45.9,115,46.2Zm-6.6.3a1.7,1.7,0,0,1-1.2.1c-.5-.2-.3-.3.4-.3S108.6,46.4,108.4,46.5Zm7,1.8c0,.3-.7.5-1.6.5s-2.1-.9-.4-1.2S115.4,47.6,115.4,48.3Zm99.4-.4a4.1,4.1,0,0,0-.1,1.1c0,.7-1.1.8-6,.8h-6.1l1.5-1c1.3-.9,1.6-1,2.8-.3s6,1.1,6.8.4-.2-.6-1-1-1.4-.6.4-.5,1.8.3,1.7.5Zm27.8,0c-.9.7-.2,2.3,1.1,2.6s1.2,0,1.3-.7a11,11,0,0,0,.1-1.6,2.1,2.1,0,0,0-2.5-.3Zm3.4.4c0,.6-.1,1.3-.1,1.6s.5.7,4.1.5c.6,0,.9-.4.7-.8s0-.8.4-.8-.4-1-2.7-1.2S246.1,47.5,246,48.3Zm11.9,0c0,.6.2.9.6.7a1.1,1.1,0,0,0,.6-1c0-.4-.3-.8-.6-.8S257.9,47.7,257.9,48.3ZM110,48.2a.9.9,0,0,1,1,1h0c0,.8.4,1,1.6,1s1.5.3,1.5.5-1.4.6-3.1.6-3-.3-3-.6.4-.5,1-.5-.3-.4-2-.7-3.2-.5-3.5-.1-2.3.1-2.3-.7S105.3,47.9,110,48.2Zm67.8-.1a6.1,6.1,0,0,0,1.9,0c.4-.1-.1-.2-1.1-.2S177.2,48,177.8,48.1Zm15.3-.1c0,.1-.3.4-.6.5s-.7.1-.7-.2.3-.5.7-.5S193.1,47.9,193.1,48Zm-104.6.8c.2.3,0,.5-.6.5s-.8-.2-.6-.5a.6.6,0,1,1,1.2,0Zm3.1,1.3A6.2,6.2,0,0,1,89,51.3c-1-.1-1-.1-.1-.3a.9.9,0,0,0,.8-.8.6.6,0,0,0-.1-.4c-.2-.8-.1-.9.6-.7a1.7,1.7,0,0,0,1.4-.3.8.8,0,0,1,1-.2C92.9,48.7,92.5,49.4,91.6,50.1Zm46.6-1.3c0,.3,1.4.5,3.2.5s3-.2,2.3-.5-5.5-.7-5.5,0Zm47.6.5c0,.7.1,1,.3.6a1.3,1.3,0,0,0,0-1.2c-.2-.4-.3-.1-.3.6Zm69-.6c0,.3-.4.6-1,.6s-.9.2-.9.5.9.4,2,.3,2.1-.3,2.2-1.1.1-.9-.4-.2-.8.7-1.3,0-.6-.6-.6-.1Zm8,1.1c0,.3.4.4.9.2s.9-.4.9-.5-.4-.2-.9-.2-.9.2-.9.5Zm-208.5.5c0,.3-.1.5-.3.5a1,1,0,0,1-.6-.5c-.3-.3-.1-.5.2-.5s.7.2.7.5Zm64.1.1c0,.3-.2.4-.6.2s-.6-.1-.6.2a.4.4,0,0,1-.6.3c-.3-.2-.7-1.3.6-1.3s1.2.3,1.2.6Zm-62.3.4c-.7.4-.4.5,1.1.5s1.9-.2,1.7-.5a2.9,2.9,0,0,0-2.8,0Zm19-.1h1.5c.5-.2.1-.3-.7-.3s-1.2.1-.8.3Zm90.1,0a1.7,1.7,0,0,0,1.2-.1c.2-.1-.2-.3-.8-.2s-.9.1-.4.3Zm-64.7.3c0,.5-2.4.7-2.8.3s.4-.5,1.3-.5a2.6,2.6,0,0,1,1.5.2Zm47.5.6c0,.4-.5.8-1.2.8s-1.1-.1-.5-.8,1.7-1,1.7,0Zm3.4-.2c-1.7.6-2.7.6-2.7,0s.9-.5,2-.5,1.8.1.7.5Zm-125.7.3a1.1,1.1,0,0,1-1.1,0q-.7-.3.3-.3c.7,0,1,.1.8.3Zm191.3,1a1.3,1.3,0,0,0,1.2,0c.2-.2-.1-.3-.8-.3s-.9.2-.4.3Zm2.8,0a2.8,2.8,0,0,0,1.8,0c.4-.1,0-.2-1.1-.2s-1.3.1-.7.2Zm12.2.2c0,.3.5.5,1.2.5s1.1-.2.9-.5a1.9,1.9,0,0,0-1.3-.5c-.4,0-.8.2-.8.5Zm12.3-.1c0,.3.5.4,1.2.2a2.8,2.8,0,0,0,1.3-.4c0-.1-.6-.2-1.3-.2s-1.2.2-1.2.4ZM4.9,53.9c-.6.4-.7.6-.2,1.1s1.9.3,5.3-.3l5.1-1c.4-.1-1.6-.2-4.3-.2S5.4,53.6,4.9,53.9Zm30.6,0c-.2.3.2.5.9.5s1.6-.2.3-.7A1.7,1.7,0,0,0,35.5,53.9Zm101.3-.2a1.7,1.7,0,0,1-1.2.1c-.5-.2-.3-.3.4-.3S137,53.5,136.8,53.7Zm-118.6.7c-.2.3.1.6.6.6s.8-.3.6-.6l-.6-.5Zm32.5-.1a3.8,3.8,0,0,1-1.5,0c-.4-.2-.1-.3.8-.3S51.2,54.1,50.7,54.3Zm144.9,1.2c2.9,0,3.1.1,1.8.5s-10.5.1-10.5-.5.8-.9,3-.5A36.6,36.6,0,0,0,195.6,55.5Zm-94.1,0c-1.1.4-1.1.4.4.4a2.8,2.8,0,0,0,2-.4C104.4,54.9,103.2,54.9,101.5,55.5Zm3.4-.1c0,.3.5.4,1.2.2s1.2-.3,1.2-.5-.5-.1-1.2-.1S104.9,55.2,104.9,55.4Zm3.7.1a.6.6,0,0,0,.6.5c.4,0,.5-.3.3-.5s-.4-.4-.7-.5S108.6,55.2,108.6,55.5Zm2.3-.2a3.8,3.8,0,0,0,1.5,0c.5-.2.1-.3-.7-.3S110.5,55.1,110.9,55.3Zm96.2,1.6c.2.5-.2.6-1.5.3s-3.3-1.3-.8-1.1S207,56.5,207.1,56.9Zm40.3-.4c0,.3-.9.5-1.9.5s-1.8.2-1.8.5,1.8.5,4.6.4,4.6-.3,4.6-.5,1.1-.4,2.3-.5h2.3l-2.7-.4c-4-.6-7.4-.6-7.4,0Zm-22,.9c.2.3-1.3.4-3.2.2-5-.2-5.4-.5-.9-.6a13.9,13.9,0,0,1,4.1.4Zm-196.6.5a4.3,4.3,0,0,0,1.6,0c.4-.2.1-.3-.8-.3S28.4,57.7,28.8,57.9Zm19.8.2c.6.5.9.5,1.5,0s.4-.6-.8-.6S48,57.7,48.6,58.1Zm5.8-.2a8.1,8.1,0,0,0,2.2,0c.6-.2.1-.3-1.1-.3S53.8,57.7,54.4,57.9ZM32,58.4a1.4,1.4,0,0,0,1.1-.1c.2-.1-.1-.2-.8-.2S31.5,58.2,32,58.4Zm-4.7,1.5a3.1,3.1,0,0,0,1.9,0c.4-.1-.1-.2-1.1-.2S26.7,59.8,27.3,59.9Zm191.5,0a5.3,5.3,0,0,0,2.5,0c.6-.1,0-.2-1.4-.2S218.1,59.8,218.8,59.9Z" style="fill:#d9ffbb;fill-rule:evenodd"/></svg>